<svg id="6aa1e95a-f26b-469c-97a2-83183ebef4f7" data-name="Layer 1" xmlns="http://www.w3.org/2000/svg" viewBox="0 0 326.99316 121.69043"><defs><style>.ea8841d9-2d66-4083-9c4b-3be21aba689d{fill:#3c3836;}</style></defs><title>banner-image</title><path class="ea8841d9-2d66-4083-9c4b-3be21aba689d" d="M76.2168,194.3623H75.93652a15.65643,15.65643,0,0,1-2.6543,5.79492,17.91307,17.91307,0,0,1-4.5498,4.32227,20.98122,20.98122,0,0,1-5.7334,2.66016,21.95692,21.95692,0,0,1-6.208.90234,19.651,19.651,0,0,1-8.91113-1.89941,18.40635,18.40635,0,0,1-6.30273-5.083,22.19756,22.19756,0,0,1-3.791-7.41016,30.79638,30.79638,0,0,1-1.2793-8.97656,31.31224,31.31224,0,0,1,1.33008-9.2627,22.32108,22.32108,0,0,1,3.99023-7.60059,19.00295,19.00295,0,0,1,6.60254-5.17676,20.65157,20.65157,0,0,1,9.07227-1.90039,19.25377,19.25377,0,0,1,12.01758,4.085,17.95461,17.95461,0,0,1,4.085,4.5127,19.32823,19.32823,0,0,1,2.42285,5.55762H76.2168V161.87207h1.80469v47.21484q0,10.06934-5.35352,14.82031-5.35547,4.749-14.92676,4.75a28.02807,28.02807,0,0,1-7.01367-.85449,17.23794,17.23794,0,0,1-5.875-2.708,13.37893,13.37893,0,0,1-4.0752-4.79687,16.01527,16.01527,0,0,1-1.61035-7.03027h1.90039a13.63691,13.63691,0,0,0,1.47168,6.1748,11.98021,11.98021,0,0,0,3.6582,4.17969,15.77952,15.77952,0,0,0,5.22461,2.375,24.994,24.994,0,0,0,6.27051.76074q8.92822,0,13.72656-4.27539,4.79736-4.27441,4.79785-13.39551V194.3623Zm-0.09473-9.68945a28.51864,28.51864,0,0,0-1.1875-8.1709,22.15556,22.15556,0,0,0-3.51562-7.07715,17.344,17.344,0,0,0-5.8418-4.93945,17.0599,17.0599,0,0,0-8.0752-1.85254,18.57943,18.57943,0,0,0-8.3125,1.75684,17.40166,17.40166,0,0,0-5.98535,4.79785,20.5668,20.5668,0,0,0-3.60937,7.03027,29.44374,29.44374,0,0,0-1.1875,8.45508,28.81989,28.81989,0,0,0,1.1875,8.4541,20.018,20.018,0,0,0,3.51465,6.793,16.5254,16.5254,0,0,0,5.74707,4.55957,17.81064,17.81064,0,0,0,7.88574,1.66309,19.41615,19.41615,0,0,0,8.3125-1.71,17.406,17.406,0,0,0,6.08008-4.60742,20.43565,20.43565,0,0,0,3.70508-6.793A26.57316,26.57316,0,0,0,76.12207,184.67285Z" transform="translate(-36.50684 -142.87207)"/><path class="ea8841d9-2d66-4083-9c4b-3be21aba689d" d="M95.02637,210.70215H93.127V161.87207h1.89941V173.9375H95.2168a19.86077,19.86077,0,0,1,2.08984-5.12988,14.895,14.895,0,0,1,3.7998-4.32227,17.2418,17.2418,0,0,1,5.65234-2.85059,24.52785,24.52785,0,0,1,7.64746-.90234v1.90039a18.31144,18.31144,0,0,0-8.69238,1.377,16.47329,16.47329,0,0,0-6.03223,4.56055,19.09391,19.09391,0,0,0-3.51465,6.69727,26.9396,26.9396,0,0,0-1.14062,7.79v27.64453Z" transform="translate(-36.50684 -142.87207)"/><path class="ea8841d9-2d66-4083-9c4b-3be21aba689d" d="M159.53027,210.70215h-1.89941V198.6377h-0.19043a17.29577,17.29577,0,0,1-2.1377,5.22461,16.50587,16.50587,0,0,1-8.88184,6.98242,20.35074,20.35074,0,0,1-6.55566.998,20.57548,20.57548,0,0,1-6.98242-1.14062,14.89583,14.89583,0,0,1-9.12012-8.88184,20.643,20.643,0,0,1-1.28223-7.55273V161.87207h1.90039v32.11035a19.05658,19.05658,0,0,0,1.23438,7.26758,13.53442,13.53442,0,0,0,3.373,4.93945,13.28721,13.28721,0,0,0,4.93945,2.85059,19.22689,19.22689,0,0,0,5.9375.90234,16.99521,16.99521,0,0,0,7.69531-1.66211,16.34926,16.34926,0,0,0,5.55762-4.46582,19.55791,19.55791,0,0,0,3.37207-6.50684,26.31893,26.31893,0,0,0,1.14063-7.79V161.87207h1.89941v48.83008Z" transform="translate(-36.50684 -142.87207)"/><path class="ea8841d9-2d66-4083-9c4b-3be21aba689d" d="M207.2207,161.87207h2.08984l-18.42969,48.83008h-2.375l-20.14062-48.83008h2.28027l18.90527,46.93066h0.18945Z" transform="translate(-36.50684 -142.87207)"/><path class="ea8841d9-2d66-4083-9c4b-3be21aba689d" d="M220.04492,175.55273h0.19043a19.73751,19.73751,0,0,1,6.74512-10.73535q5.0332-4.084,12.82422-4.085a18.60717,18.60717,0,0,1,8.93066,2.08984,19.50427,19.50427,0,0,1,6.50684,5.60547,25.89247,25.89247,0,0,1,3.99023,8.16992,36.20121,36.20121,0,0,1-.04687,19.9502,24.3311,24.3311,0,0,1-4.13281,8.07422,19.00424,19.00424,0,0,1-6.55469,5.32031,19.37489,19.37489,0,0,1-8.69336,1.90039A21.09362,21.09362,0,0,1,232.918,210.75a19.00716,19.00716,0,0,1-5.7002-3.08789,19.52138,19.52138,0,0,1-4.27539-4.70215,22.40316,22.40316,0,0,1-2.707-5.9375h-0.19043v13.67969h-1.89941V142.87207h1.89941v32.68066Zm0,10.83008a30.16847,30.16847,0,0,0,1.33008,9.02441,23.34862,23.34862,0,0,0,3.84766,7.50488,18.58427,18.58427,0,0,0,6.1748,5.12988,17.96161,17.96161,0,0,0,8.40723,1.90039,17.396,17.396,0,0,0,8.3125-1.90039,16.8559,16.8559,0,0,0,5.89063-5.17676,24.12385,24.12385,0,0,0,3.51465-7.50488,33.07551,33.07551,0,0,0,1.1875-8.97754,33.8923,33.8923,0,0,0-1.09277-8.50293,24.30278,24.30278,0,0,0-3.37207-7.59961,18.36471,18.36471,0,0,0-5.84277-5.51074,16.417,16.417,0,0,0-8.59766-2.13672,20.40793,20.40793,0,0,0-8.12207,1.56738,16.57835,16.57835,0,0,0-6.22266,4.60742,21.79882,21.79882,0,0,0-3.99023,7.457A32.96554,32.96554,0,0,0,220.04492,186.38281Z" transform="translate(-36.50684 -142.87207)"/><path class="ea8841d9-2d66-4083-9c4b-3be21aba689d" d="M271.34375,186.28711a32.595,32.595,0,0,1,1.4248-9.59473,24.44059,24.44059,0,0,1,4.22754-8.16992,21.35513,21.35513,0,0,1,6.8877-5.65234,20.204,20.204,0,0,1,9.5-2.1377,19.99843,19.99843,0,0,1,9.40527,2.1377,21.39659,21.39659,0,0,1,6.8877,5.65234,24.45845,24.45845,0,0,1,4.22754,8.16992,33.17928,33.17928,0,0,1,0,19.2373,25.05128,25.05128,0,0,1-4.22754,8.16992,21.59721,21.59721,0,0,1-25.84082,5.65234,19.9497,19.9497,0,0,1-6.88672-5.65234,25.53134,25.53134,0,0,1-4.18066-8.16992A32.43185,32.43185,0,0,1,271.34375,186.28711Zm1.90039,0a30.89542,30.89542,0,0,0,1.28223,8.93066,22.69345,22.69345,0,0,0,3.84766,7.55176,19.05967,19.05967,0,0,0,6.31738,5.22559,18.598,18.598,0,0,0,8.69238,1.94727,18.39176,18.39176,0,0,0,8.59766-1.94727,19.07919,19.07919,0,0,0,6.31738-5.22559,22.71166,22.71166,0,0,0,3.84766-7.55176,30.92892,30.92892,0,0,0,1.28223-8.93066,30.59994,30.59994,0,0,0-1.28223-8.835,22.72587,22.72587,0,0,0-3.84766-7.55273,19.62567,19.62567,0,0,0-6.31738-5.27246,18.04814,18.04814,0,0,0-8.59766-1.99414,18.24936,18.24936,0,0,0-8.69238,1.99414,19.605,19.605,0,0,0-6.31738,5.27246,22.70764,22.70764,0,0,0-3.84766,7.55273A30.56646,30.56646,0,0,0,273.24414,186.28711Z" transform="translate(-36.50684 -142.87207)"/><path class="ea8841d9-2d66-4083-9c4b-3be21aba689d" d="M358.83789,161.87207h2.28027l-17.86035,23.56055,19.57031,25.26953h-2.375l-18.42969-23.84473-18.335,23.84473h-2.375l19.56934-25.26953-17.76465-23.56055h2.46973l16.43555,22.13574Z" transform="translate(-36.50684 -142.87207)"/><rect class="ea8841d9-2d66-4083-9c4b-3be21aba689d" x="56.49316" y="83.83008" width="270.5" height="2"/><path class="ea8841d9-2d66-4083-9c4b-3be21aba689d" d="M122.48242,249.77148v-0.98926h2.75977v-3.18066a3.31388,3.31388,0,0,1,.27-1.39453,2.49155,2.49155,0,0,1,.73535-0.94531,3.19629,3.19629,0,0,1,1.08008-.53906,4.57861,4.57861,0,0,1,1.30469-.18066,6.91138,6.91138,0,0,1,1.3501.15039v0.98926a6.98,6.98,0,0,0-1.3501-.14941,2.81305,2.81305,0,0,0-1.605.43457,1.95084,1.95084,0,0,0-.645,1.72559v3.08984h3.21v0.98926h-3.21v14.43066h-1.14014V249.77148h-2.75977Z" transform="translate(-36.50684 -142.87207)"/><path class="ea8841d9-2d66-4083-9c4b-3be21aba689d" d="M132.17236,256.49219a10.14761,10.14761,0,0,1,.46484-3.10547,7.80783,7.80783,0,0,1,1.36523-2.56445,6.48786,6.48786,0,0,1,2.21973-1.75488,7.43427,7.43427,0,0,1,6.06006,0,6.48963,6.48963,0,0,1,2.22021,1.75488,7.80681,7.80681,0,0,1,1.36475,2.56445,10.14769,10.14769,0,0,1,.46533,3.10547,10.284,10.284,0,0,1-.46533,3.12012,7.61215,7.61215,0,0,1-1.36475,2.56543,6.566,6.566,0,0,1-2.22021,1.73926,7.43427,7.43427,0,0,1-6.06006,0,6.56416,6.56416,0,0,1-2.21973-1.73926,7.6131,7.6131,0,0,1-1.36523-2.56543A10.28384,10.28384,0,0,1,132.17236,256.49219Zm1.14014,0a9.01123,9.01123,0,0,0,.39014,2.6543,7.17536,7.17536,0,0,0,1.13965,2.26563,5.54418,5.54418,0,0,0,1.86035,1.5752,5.84969,5.84969,0,0,0,5.09961,0,5.55364,5.55364,0,0,0,1.86035-1.5752,7.19585,7.19585,0,0,0,1.13965-2.26562,9.22765,9.22765,0,0,0,0-5.30957,7.21158,7.21158,0,0,0-1.13965-2.26465,5.55364,5.55364,0,0,0-1.86035-1.5752,5.84969,5.84969,0,0,0-5.09961,0,5.54418,5.54418,0,0,0-1.86035,1.5752,7.191,7.191,0,0,0-1.13965,2.26465A9.02252,9.02252,0,0,0,133.3125,256.49219Z" transform="translate(-36.50684 -142.87207)"/><path class="ea8841d9-2d66-4083-9c4b-3be21aba689d" d="M151.6416,252.20215h0.09033a3.66925,3.66925,0,0,1,.77979-1.41016,5.75814,5.75814,0,0,1,1.3501-1.13965,6.45049,6.45049,0,0,1,1.75488-.73535,7.17307,7.17307,0,0,1,2.0249-.22461V249.832a5.406,5.406,0,0,0-2.05469.17969,4.99667,4.99667,0,0,0-2.20508,1.32031,10.6701,10.6701,0,0,0-.73486.87012,4.22258,4.22258,0,0,0-.52539.93066,5.83083,5.83083,0,0,0-.32959,1.13867,9.922,9.922,0,0,0-.15039,1.5v8.43066H150.502V248.78223h1.13965v3.41992Z" transform="translate(-36.50684 -142.87207)"/><path class="ea8841d9-2d66-4083-9c4b-3be21aba689d" d="M170.72217,259.07227a4.71556,4.71556,0,0,0,.48,1.9043,4.53229,4.53229,0,0,0,2.66992,2.29492,6.09584,6.09584,0,0,0,1.94971.30078,10.33514,10.33514,0,0,0,1.605-.13477,5.58542,5.58542,0,0,0,1.59033-.49512,3.30984,3.30984,0,0,0,1.21484-1.00488,2.666,2.666,0,0,0,.48-1.63477,2.58663,2.58663,0,0,0-.4502-1.59082,3.204,3.204,0,0,0-1.19971-.96,7.86124,7.86124,0,0,0-1.69482-.57031q-0.94556-.208-1.93506-0.41992-0.99023-.208-1.9502-0.47949a6.6306,6.6306,0,0,1-1.71-.73535,3.53327,3.53327,0,0,1-1.2002-1.22949,3.77379,3.77379,0,0,1-.44971-1.93457,3.36245,3.36245,0,0,1,.50977-1.90625,3.80154,3.80154,0,0,1,1.30518-1.21484,5.944,5.944,0,0,1,1.78516-.64453,10.22863,10.22863,0,0,1,1.98-.19531,8.92689,8.92689,0,0,1,2.26465.27051,4.862,4.862,0,0,1,1.80029.87012,4.14712,4.14712,0,0,1,1.19971,1.5293,5.28692,5.28692,0,0,1,.43506,2.25h-1.14014a4.12873,4.12873,0,0,0-.35986-1.7998,3.33886,3.33886,0,0,0-.96-1.21484,4.03791,4.03791,0,0,0-1.43994-.69043,6.96047,6.96047,0,0,0-1.7998-.22461,8.5103,8.5103,0,0,0-1.5752.15039,4.5295,4.5295,0,0,0-1.4248.50977,3.20632,3.20632,0,0,0-1.03516.92969,2.32291,2.32291,0,0,0-.40527,1.38086,2.35544,2.35544,0,0,0,.4502,1.5,3.22358,3.22358,0,0,0,1.18506.91406,8.06377,8.06377,0,0,0,1.6499.55469q0.91479,0.21094,1.84521.41992,1.13965,0.21094,2.145.49609a6.03029,6.03029,0,0,1,1.73975.7793,3.54786,3.54786,0,0,1,1.15527,1.27539,4.151,4.151,0,0,1,.41992,1.98047,3.51382,3.51382,0,0,1-.57031,2.06934,4.39686,4.39686,0,0,1-1.43994,1.30566,6.12335,6.12335,0,0,1-1.93506.68945,11.57694,11.57694,0,0,1-2.085.19531,8.28509,8.28509,0,0,1-2.44482-.3457,5.53911,5.53911,0,0,1-1.96484-1.0498,4.99253,4.99253,0,0,1-1.32031-1.72461,5.81348,5.81348,0,0,1-.50977-2.37012h1.14014Z" transform="translate(-36.50684 -142.87207)"/><path class="ea8841d9-2d66-4083-9c4b-3be21aba689d" d="M198.32178,264.20215h-1.14014v-3.2998h-0.06006a4.95107,4.95107,0,0,1-.855,1.54492,5.69123,5.69123,0,0,1-2.895,1.875,6.62011,6.62011,0,0,1-1.77.24023,7.00917,7.00917,0,0,1-2.29492-.33008,4.49859,4.49859,0,0,1-1.54492-.87012,4.18967,4.18967,0,0,1-.94531-1.21582,5.583,5.583,0,0,1-.49463-1.36426,7.94,7.94,0,0,1-.18018-1.335q-0.03-.64453-0.02979-1.125v-9.54h1.13965v9.75a14.2327,14.2327,0,0,0,.09033,1.45508,4.36046,4.36046,0,0,0,.5249,1.64941,3.82188,3.82188,0,0,0,1.30518,1.36523,4.46658,4.46658,0,0,0,2.46.57031,5.45785,5.45785,0,0,0,2.32471-.48047,5.02813,5.02813,0,0,0,1.75488-1.334,5.88662,5.88662,0,0,0,1.09521-2.041,8.556,8.556,0,0,0,.375-2.59473v-8.33984h1.14014v15.41992Z" transform="translate(-36.50684 -142.87207)"/><path class="ea8841d9-2d66-4083-9c4b-3be21aba689d" d="M203.45117,242.78223h1.11035v9.27051h0.05957a4.87038,4.87038,0,0,1,.93262-1.57617,5.87514,5.87514,0,0,1,1.38379-1.13965,6.21251,6.21251,0,0,1,1.69824-.69043,7.76206,7.76206,0,0,1,1.84961-.22461,6.78016,6.78016,0,0,1,2.96191.59961,5.95258,5.95258,0,0,1,2.08984,1.65039,6.985,6.985,0,0,1,1.248,2.44531,10.72055,10.72055,0,0,1,.40625,3.01563,10.86911,10.86911,0,0,1-.752,4.42383,7.0741,7.0741,0,0,1-1.80469,2.55078,5.46176,5.46176,0,0,1-2.19434,1.16992,8.32555,8.32555,0,0,1-1.95508.28516A6.16433,6.16433,0,0,1,206.125,262.957a5.5649,5.5649,0,0,1-1.05273-1.27539,5.21171,5.21171,0,0,1-.45117-0.92969H204.5625v3.4502h-1.11133V242.78223Zm7.03516,20.79a4.77993,4.77993,0,0,0,2.58789-.66016,5.326,5.326,0,0,0,1.71387-1.72461,7.70793,7.70793,0,0,0,.96191-2.40039,12.00144,12.00144,0,0,0,.30078-2.6543,8.94856,8.94856,0,0,0-.3457-2.49023,6.57707,6.57707,0,0,0-1.05273-2.14551,5.39652,5.39652,0,0,0-1.74414-1.51465,4.949,4.949,0,0,0-2.42187-.57031,6.23055,6.23055,0,0,0-2.61621.50977,4.96251,4.96251,0,0,0-1.835,1.41016,6.10218,6.10218,0,0,0-1.082,2.12988,9.39473,9.39473,0,0,0-.36133,2.6709,11.549,11.549,0,0,0,.33008,2.75977,7.22706,7.22706,0,0,0,1.03906,2.38477A5.17109,5.17109,0,0,0,210.48633,263.57227Z" transform="translate(-36.50684 -142.87207)"/><path class="ea8841d9-2d66-4083-9c4b-3be21aba689d" d="M222.77148,242.78223v21.41992h-1.13965V242.78223h1.13965Z" transform="translate(-36.50684 -142.87207)"/><path class="ea8841d9-2d66-4083-9c4b-3be21aba689d" d="M228.17188,245.87207v-3.08984h1.13965v3.08984h-1.13965Zm0,18.33008V248.78223h1.13965v15.41992h-1.13965Z" transform="translate(-36.50684 -142.87207)"/><path class="ea8841d9-2d66-4083-9c4b-3be21aba689d" d="M234.4707,248.78223h1.14063v3.14941h0.06055a4.13009,4.13009,0,0,1,.62891-1.36426,4.84715,4.84715,0,0,1,1.0957-1.125,5.20084,5.20084,0,0,1,1.43945-.75,5.12279,5.12279,0,0,1,1.666-.27051,5.8204,5.8204,0,0,1,1.91992.28516,4.57148,4.57148,0,0,1,1.37891.75,3.70476,3.70476,0,0,1,.90039,1.05078,4.00721,4.00721,0,0,1,.4502,1.18457h0.05957a5.743,5.743,0,0,1,1.8457-2.43066,5.0697,5.0697,0,0,1,3.04492-.83984,5.734,5.734,0,0,1,1.93457.31543,4.0685,4.0685,0,0,1,1.53027.96,4.39794,4.39794,0,0,1,1.00488,1.63477,6.86632,6.86632,0,0,1,.36035,2.33984v10.53027H253.791V253.64258a4.9534,4.9534,0,0,0-.44922-2.31055,3.63955,3.63955,0,0,0-1.06543-1.27539,3.03481,3.03481,0,0,0-1.22949-.53906,6.04481,6.04481,0,0,0-.94531-0.10547,5.0997,5.0997,0,0,0-1.93555.35938,4.1135,4.1135,0,0,0-1.5293,1.08008,5.07749,5.07749,0,0,0-1.00586,1.78516,7.62584,7.62584,0,0,0-.35937,2.44531v9.12012h-1.14062V253.64258a5.09324,5.09324,0,0,0-.43457-2.29492,3.45386,3.45386,0,0,0-1.02051-1.27539,3.07158,3.07158,0,0,0-1.19922-.54,5.48667,5.48667,0,0,0-.97461-0.12012,4.814,4.814,0,0,0-3.27051,1.34961,5.19282,5.19282,0,0,0-1.1709,1.77051,6.62522,6.62522,0,0,0-.44922,2.5498v9.12012H234.4707V248.78223Z" transform="translate(-36.50684 -142.87207)"/><path class="ea8841d9-2d66-4083-9c4b-3be21aba689d" d="M260.27148,256.64258a9.03131,9.03131,0,0,0,.31445,2.60938,6.56218,6.56218,0,0,0,1.06445,2.2207,5.37772,5.37772,0,0,0,1.78516,1.5293,5.227,5.227,0,0,0,2.50586.57031,5.49793,5.49793,0,0,0,3.64453-1.21484,5.62788,5.62788,0,0,0,1.875-3.375h1.13965a6.52262,6.52262,0,0,1-2.1748,4.1543,7.65258,7.65258,0,0,1-7.45508.81055,6.04756,6.04756,0,0,1-2.14453-1.67969,7.35942,7.35942,0,0,1-1.29-2.49023,9.65238,9.65238,0,0,1-.40527-3.01562,11.03363,11.03363,0,0,1,.375-3.08984,8.02742,8.02742,0,0,1,1.25977-2.66992,6.4737,6.4737,0,0,1,2.14551-1.875,6.22722,6.22722,0,0,1,3.03027-.70508,6.90548,6.90548,0,0,1,3.11914.66016,5.98708,5.98708,0,0,1,2.16016,1.78516,7.29541,7.29541,0,0,1,1.21582,2.625,10.56877,10.56877,0,0,1,.28516,3.15039h-12.4502Zm11.30957-.99023a7.81127,7.81127,0,0,0-.41992-2.33984,6.15713,6.15713,0,0,0-1.11035-1.99512,5.52327,5.52327,0,0,0-1.75488-1.37988,5.14085,5.14085,0,0,0-2.35449-.52539,4.76688,4.76688,0,0,0-2.29492.54,5.6419,5.6419,0,0,0-1.72559,1.4248,7.07511,7.07511,0,0,0-1.13965,2.00977,8.30587,8.30587,0,0,0-.50977,2.26563h11.30957Z" transform="translate(-36.50684 -142.87207)"/><path class="ea8841d9-2d66-4083-9c4b-3be21aba689d" d="M292.40039,249.77148H289.041V260.542a4.14608,4.14608,0,0,0,.21,1.46973,1.59456,1.59456,0,0,0,.64453.81055,2.55377,2.55377,0,0,0,1.0498.34473,9.09377,9.09377,0,0,0,1.42578.04492v0.99023a10.76376,10.76376,0,0,1-1.69531-.01465,3.40292,3.40292,0,0,1-1.45508-.4502,2.638,2.638,0,0,1-1.00488-1.125,4.25661,4.25661,0,0,1-.31543-2.07031V249.77148h-2.84961v-0.98926h2.84961v-4.7998H289.041v4.7998h3.35938v0.98926Z" transform="translate(-36.50684 -142.87207)"/><path class="ea8841d9-2d66-4083-9c4b-3be21aba689d" d="M296.4502,256.64258a9.03174,9.03174,0,0,0,.31543,2.60938,6.544,6.544,0,0,0,1.06445,2.2207,5.36812,5.36812,0,0,0,1.78516,1.5293,5.223,5.223,0,0,0,2.50488.57031,5.4988,5.4988,0,0,0,3.64551-1.21484,5.63281,5.63281,0,0,0,1.875-3.375h1.13965a6.53162,6.53162,0,0,1-2.1748,4.1543,7.65255,7.65255,0,0,1-7.45508.81055,6.04248,6.04248,0,0,1-2.14551-1.67969,7.37685,7.37685,0,0,1-1.29-2.49023,9.62361,9.62361,0,0,1-.4043-3.01562,10.96211,10.96211,0,0,1,.375-3.08984,8.0084,8.0084,0,0,1,1.25977-2.66992,6.48,6.48,0,0,1,2.14453-1.875,6.22722,6.22722,0,0,1,3.03027-.70508,6.90687,6.90687,0,0,1,3.12012.66016,6.00352,6.00352,0,0,1,2.16016,1.78516,7.2939,7.2939,0,0,1,1.21484,2.625,10.56877,10.56877,0,0,1,.28516,3.15039H296.4502Zm11.31055-.99023a7.81244,7.81244,0,0,0-.4209-2.33984,6.15506,6.15506,0,0,0-1.10937-1.99512,5.5449,5.5449,0,0,0-1.75488-1.37988,5.14211,5.14211,0,0,0-2.35547-.52539,4.76688,4.76688,0,0,0-2.29492.54,5.64966,5.64966,0,0,0-1.72461,1.4248,7.07764,7.07764,0,0,0-1.14062,2.00977,8.34207,8.34207,0,0,0-.50977,2.26563h11.31055Z" transform="translate(-36.50684 -142.87207)"/><path class="ea8841d9-2d66-4083-9c4b-3be21aba689d" d="M317.27051,256.10156l-5.63965-7.31934h1.58984l4.83008,6.4502,4.85938-6.4502h1.4707l-5.58008,7.31934,6.08984,8.10059h-1.55957l-5.28027-7.22949-5.40039,7.22949h-1.43945Z" transform="translate(-36.50684 -142.87207)"/><path class="ea8841d9-2d66-4083-9c4b-3be21aba689d" d="M333.55957,249.77148H330.2002V260.542a4.14608,4.14608,0,0,0,.21,1.46973,1.59456,1.59456,0,0,0,.64453.81055,2.55377,2.55377,0,0,0,1.0498.34473,9.09377,9.09377,0,0,0,1.42578.04492v0.99023a10.76376,10.76376,0,0,1-1.69531-.01465,3.40292,3.40292,0,0,1-1.45508-.4502,2.638,2.638,0,0,1-1.00488-1.125,4.25661,4.25661,0,0,1-.31543-2.07031V249.77148H326.21v-0.98926h2.84961v-4.7998h1.14063v4.7998h3.35938v0.98926Z" transform="translate(-36.50684 -142.87207)"/><path class="ea8841d9-2d66-4083-9c4b-3be21aba689d" d="M347.53906,257.3623a6.90983,6.90983,0,0,0,.3457,2.59473,5.17665,5.17665,0,0,0,1.18457,1.9502,5.2674,5.2674,0,0,0,1.91992,1.22949,7.17283,7.17283,0,0,0,2.58008.43555,7.52983,7.52983,0,0,0,2.21973-.33008,5.82339,5.82339,0,0,0,1.90527-.97461,4.79908,4.79908,0,0,0,1.32031-1.60547,4.70487,4.70487,0,0,0,.49512-2.18945,4.5882,4.5882,0,0,0-.60059-2.44531,4.20538,4.20538,0,0,0-1.58984-1.51562,6.61674,6.61674,0,0,0-2.23535-.71973,11.90059,11.90059,0,0,0-2.53418-.08984v-0.99023a11.07483,11.07483,0,0,0,2.29492-.12012,6.76929,6.76929,0,0,0,2.085-.66016,4.01471,4.01471,0,0,0,1.51465-1.34961,3.90244,3.90244,0,0,0,.585-2.21973,3.54834,3.54834,0,0,0-.49512-1.88965,4.05559,4.05559,0,0,0-1.29-1.32031,6.13283,6.13283,0,0,0-1.76953-.76562,7.51713,7.51713,0,0,0-1.90527-.25391,5.82769,5.82769,0,0,0-2.37012.44922,4.74718,4.74718,0,0,0-1.69531,1.23047,5.4229,5.4229,0,0,0-1.03418,1.85938,8.72154,8.72154,0,0,0-.41992,2.37012h-1.14062a8.14077,8.14077,0,0,1,.46484-2.80469,6.07778,6.07778,0,0,1,1.335-2.1748,6.15367,6.15367,0,0,1,2.10059-1.41016,7.14545,7.14545,0,0,1,2.75977-.50977,9.92375,9.92375,0,0,1,2.44531.2998,6.47914,6.47914,0,0,1,2.09961.92969,4.91958,4.91958,0,0,1,1.48535,1.62012,4.6747,4.6747,0,0,1,.56934,2.37012,5.2104,5.2104,0,0,1-.28418,1.73926,4.4525,4.4525,0,0,1-2.11523,2.47559,4.73429,4.73429,0,0,1-1.65039.52441v0.06055a5.20956,5.20956,0,0,1,1.89063.57031,4.76092,4.76092,0,0,1,1.4248,1.1543,5.13569,5.13569,0,0,1,.89941,1.62109,5.993,5.993,0,0,1,.31543,1.96484,5.90232,5.90232,0,0,1-.57031,2.66992,5.60422,5.60422,0,0,1-1.5293,1.9043,6.47468,6.47468,0,0,1-2.25,1.14063,9.73879,9.73879,0,0,1-2.73047.375,9.226,9.226,0,0,1-3.0752-.48047,6.10275,6.10275,0,0,1-2.29492-1.39453,5.91415,5.91415,0,0,1-1.41016-2.25,7.835,7.835,0,0,1-.38965-3.0752h1.13965Z" transform="translate(-36.50684 -142.87207)"/></svg>